<svg width="51" height="63" viewBox="0 0 51 63" fill="none" xmlns="http://www.w3.org/2000/svg">
<g clip-path="url(#clip0_10_696)">
<path opacity="0.06" d="M42.9099 52.4187H8.08354C5.9914 52.4187 4.29553 50.7227 4.29553 48.6307V3.78813C4.29553 1.69612 5.9914 0.00012207 8.08354 0.00012207H42.9099C45.0021 0.00012207 46.6979 1.69612 46.6979 3.78813V48.6305C46.6979 50.7227 45.0019 52.4187 42.9099 52.4187Z" fill="#000201"/>
<path d="M42.9098 0.00012207H39.1218C41.214 0.00012207 42.9098 1.69612 42.9098 3.78813V48.6305C42.9098 50.7227 41.2138 52.4185 39.1218 52.4185H42.9098C45.002 52.4185 46.6978 50.7225 46.6978 48.6305V3.78813C46.6978 1.69612 45.0019 0.00012207 42.9098 0.00012207V0.00012207Z" fill="#BCC6C5"/>
<path d="M46.7102 62.7557H4.28386C2.19184 62.7557 0.49585 61.0597 0.49585 58.9677V28.4106C0.49585 26.3185 2.19184 24.6226 4.28386 24.6226H22.7623C24.2688 24.6226 25.5819 25.6479 25.9473 27.1093L26.5979 29.7119C26.9632 31.1735 28.2763 32.1986 29.7828 32.1986H46.71C48.8022 32.1986 50.4981 33.8946 50.4981 35.9866V58.9676C50.4983 61.0597 48.8023 62.7557 46.7102 62.7557Z" fill="#0C756F"/>
<path d="M22.1598 27.1093L22.8104 29.7119C23.1758 31.1735 24.4889 32.1986 25.9954 32.1986H29.7834C28.277 32.1986 26.9638 31.1733 26.5984 29.7119L25.9478 27.1093C25.5825 25.6478 24.2694 24.6226 22.7629 24.6226H18.9749C20.4814 24.6225 21.7944 25.6478 22.1598 27.1093Z" fill="#034844"/>
<path d="M46.7111 32.1986H42.9231C45.0152 32.1986 46.7111 33.8946 46.7111 35.9866V58.9675C46.7111 61.0597 45.0151 62.7555 42.9231 62.7555H46.7111C48.8032 62.7555 50.4991 61.0595 50.4991 58.9675V35.9867C50.4992 33.8946 48.8032 32.1986 46.7111 32.1986Z" fill="#034844"/>
<path d="M15.25 50.75L20.409 45.591C20.6179 45.3821 20.866 45.2163 21.139 45.1033C21.4119 44.9902 21.7045 44.932 22 44.932C22.2955 44.932 22.5881 44.9902 22.861 45.1033C23.134 45.2163 23.3821 45.3821 23.591 45.591L28.75 50.75M27.25 49.25L28.659 47.841C28.8679 47.6321 29.116 47.4663 29.389 47.3533C29.6619 47.2402 29.9545 47.182 30.25 47.182C30.5455 47.182 30.8381 47.2402 31.111 47.3533C31.384 47.4663 31.6321 47.6321 31.841 47.841L34.75 50.75M16.75 54.5H33.25C33.6478 54.5 34.0294 54.342 34.3107 54.0607C34.592 53.7794 34.75 53.3978 34.75 53V41C34.75 40.6022 34.592 40.2206 34.3107 39.9393C34.0294 39.658 33.6478 39.5 33.25 39.5H16.75C16.3522 39.5 15.9706 39.658 15.6893 39.9393C15.408 40.2206 15.25 40.6022 15.25 41V53C15.25 53.3978 15.408 53.7794 15.6893 54.0607C15.9706 54.342 16.3522 54.5 16.75 54.5ZM27.25 43.25H27.258V43.258H27.25V43.25ZM27.625 43.25C27.625 43.3495 27.5855 43.4448 27.5152 43.5152C27.4448 43.5855 27.3495 43.625 27.25 43.625C27.1505 43.625 27.0552 43.5855 26.9848 43.5152C26.9145 43.4448 26.875 43.3495 26.875 43.25C26.875 43.1505 26.9145 43.0552 26.9848 42.9848C27.0552 42.9145 27.1505 42.875 27.25 42.875C27.3495 42.875 27.4448 42.9145 27.5152 42.9848C27.5855 43.0552 27.625 43.1505 27.625 43.25Z" stroke="white" stroke-width="1.5" stroke-linecap="round" stroke-linejoin="round"/>
<path d="M39.6325 11.3644H11.3606C11.0119 11.3644 10.7292 11.0817 10.7292 10.733V6.31367C10.7292 5.96496 11.0119 5.68231 11.3606 5.68231H39.6323C39.9811 5.68231 40.2637 5.96496 40.2637 6.31367V10.733C40.2637 11.0817 39.9811 11.3644 39.6325 11.3644Z" fill="#BCC6C5"/>
<path d="M40.2646 17.9936H10.7302C10.2072 17.9936 9.7832 17.5696 9.7832 17.0466C9.7832 16.5236 10.2072 16.0996 10.7302 16.0996H40.2646C40.7876 16.0996 41.2116 16.5236 41.2116 17.0466C41.2116 17.5696 40.7876 17.9936 40.2646 17.9936Z" fill="#BCC6C5"/>
<path d="M40.2646 21.7815H10.7302C10.2072 21.7815 9.7832 21.3575 9.7832 20.8345C9.7832 20.3115 10.2072 19.8876 10.7302 19.8876H40.2646C40.7876 19.8876 41.2116 20.3115 41.2116 20.8345C41.2117 21.3575 40.7876 21.7815 40.2646 21.7815Z" fill="#BCC6C5"/>
<path d="M40.2648 25.5695H29.6706C29.1476 25.5695 28.7236 25.1455 28.7236 24.6225C28.7236 24.0995 29.1476 23.6755 29.6706 23.6755H40.2648C40.7878 23.6755 41.2117 24.0995 41.2117 24.6225C41.2117 25.1455 40.7878 25.5695 40.2648 25.5695Z" fill="#BCC6C5"/>
<path d="M40.2648 29.3574H29.6706C29.1476 29.3574 28.7236 28.9334 28.7236 28.4104C28.7236 27.8874 29.1476 27.4634 29.6706 27.4634H40.2648C40.7878 27.4634 41.2117 27.8874 41.2117 28.4104C41.2117 28.9334 40.7878 29.3574 40.2648 29.3574Z" fill="#BCC6C5"/>
</g>
<defs>
<clipPath id="clip0_10_696">
<rect width="50.0083" height="62.7556" fill="white" transform="translate(0.49585)"/>
</clipPath>
</defs>
</svg>
