<svg width="40" height="41" viewBox="0 0 40 41" fill="none" xmlns="http://www.w3.org/2000/svg">
<circle cx="20" cy="20.1014" r="20" fill="#0C756F" fill-opacity="0.1"/>
<g clip-path="url(#clip0_15_1119)">
<path d="M36.7812 35.1015H3.21149C1.55618 35.1015 0.214233 33.7596 0.214233 32.1043V7.92609C0.214233 6.27069 1.55618 4.92883 3.21149 4.92883H17.8325C19.0245 4.92883 20.0635 5.74009 20.3526 6.89642L20.8674 8.95575C21.1565 10.1122 22.1955 10.9233 23.3875 10.9233H36.7811C38.4365 10.9233 39.7784 12.2653 39.7784 13.9206V32.1042C39.7785 33.7596 38.4366 35.1015 36.7812 35.1015Z" fill="#0C756F"/>
<path d="M17.3568 6.89703L17.8716 8.95636C18.1607 10.1128 19.1996 10.9239 20.3916 10.9239H23.3889C22.197 10.9239 21.1579 10.1127 20.8688 8.95636L20.354 6.89703C20.0649 5.74061 19.0259 4.92944 17.8339 4.92944H14.8367C16.0287 4.92935 17.0677 5.74061 17.3568 6.89703Z" fill="#034844"/>
<path d="M36.7818 10.9232H33.7845C35.4399 10.9232 36.7818 12.2652 36.7818 13.9205V32.1041C36.7818 33.7595 35.4398 35.1013 33.7845 35.1013H36.7818C38.4372 35.1013 39.779 33.7594 39.779 32.1041V13.9206C39.7791 12.2652 38.4372 10.9232 36.7818 10.9232Z" fill="#034844"/>
<path d="M12.6875 25.9138L16.5567 22.0446C16.7134 21.8879 16.8995 21.7636 17.1042 21.6788C17.309 21.594 17.5284 21.5503 17.75 21.5503C17.9716 21.5503 18.191 21.594 18.3958 21.6788C18.6005 21.7636 18.7866 21.8879 18.9432 22.0446L22.8125 25.9138M21.6875 24.7888L22.7443 23.7321C22.9009 23.5754 23.087 23.4511 23.2917 23.3663C23.4965 23.2815 23.7159 23.2378 23.9375 23.2378C24.1591 23.2378 24.3785 23.2815 24.5833 23.3663C24.788 23.4511 24.9741 23.5754 25.1307 23.7321L27.3125 25.9138M13.8125 28.7263H26.1875C26.4859 28.7263 26.772 28.6078 26.983 28.3968C27.194 28.1858 27.3125 27.8997 27.3125 27.6013V18.6013C27.3125 18.3029 27.194 18.0168 26.983 17.8058C26.772 17.5948 26.4859 17.4763 26.1875 17.4763H13.8125C13.5141 17.4763 13.228 17.5948 13.017 17.8058C12.806 18.0168 12.6875 18.3029 12.6875 18.6013V27.6013C12.6875 27.8997 12.806 28.1858 13.017 28.3968C13.228 28.6078 13.5141 28.7263 13.8125 28.7263ZM21.6875 20.2888H21.6935V20.2948H21.6875V20.2888ZM21.9688 20.2888C21.9688 20.3634 21.9391 20.4349 21.8864 20.4877C21.8336 20.5404 21.7621 20.5701 21.6875 20.5701C21.6129 20.5701 21.5414 20.5404 21.4886 20.4877C21.4359 20.4349 21.4062 20.3634 21.4062 20.2888C21.4062 20.2142 21.4359 20.1427 21.4886 20.0899C21.5414 20.0372 21.6129 20.0076 21.6875 20.0076C21.7621 20.0076 21.8336 20.0372 21.8864 20.0899C21.9391 20.1427 21.9688 20.2142 21.9688 20.2888Z" stroke="white" stroke-width="1.125" stroke-linecap="round" stroke-linejoin="round"/>
</g>
<defs>
<clipPath id="clip0_15_1119">
<rect width="39.3103" height="30" fill="white" transform="translate(0.345093 5.10132)"/>
</clipPath>
</defs>
</svg>
