<svg width="25" height="25" viewBox="0 0 25 25" fill="none" xmlns="http://www.w3.org/2000/svg">
<path fill-rule="evenodd" clip-rule="evenodd" d="M15.9201 4.7515C15.9201 5.16571 15.5843 5.5015 15.1701 5.5015H7.74006V5.5915C7.7346 6.55573 6.95429 7.33604 5.99006 7.3415H4.31006C3.34583 7.33604 2.56552 6.55573 2.56006 5.5915V3.9115C2.56552 2.94727 3.34583 2.16696 4.31006 2.1615H5.99006C6.95429 2.16696 7.7346 2.94727 7.74006 3.9115V4.0015H15.1701C15.5843 4.0015 15.9201 4.33729 15.9201 4.7515ZM5.99006 5.8415C6.12813 5.8415 6.24006 5.72957 6.24006 5.5915V3.9115C6.24006 3.77343 6.12813 3.6615 5.99006 3.6615H4.31006C4.17417 3.66663 4.06519 3.77561 4.06006 3.9115V5.5915C4.06006 5.72957 4.17199 5.8415 4.31006 5.8415H5.99006Z" fill="#034844"/>
<path fill-rule="evenodd" clip-rule="evenodd" d="M19.01 2.1615H20.69C21.6542 2.16696 22.4345 2.94727 22.44 3.9115V5.5915C22.4345 6.55573 21.6542 7.33604 20.69 7.3415H20.6V14.7715C20.6 15.1857 20.2642 15.5215 19.85 15.5215C19.4358 15.5215 19.1 15.1857 19.1 14.7715V7.3415H19.01C18.0458 7.33604 17.2655 6.55573 17.26 5.5915V3.9115C17.2655 2.94727 18.0458 2.16696 19.01 2.1615ZM20.69 5.8415C20.8281 5.8415 20.94 5.72957 20.94 5.5915V3.9115C20.9349 3.77561 20.8259 3.66663 20.69 3.6615H19.01C18.8719 3.6615 18.76 3.77343 18.76 3.9115V5.5915C18.76 5.72957 18.8719 5.8415 19.01 5.8415H20.69Z" fill="#034844"/>
<path fill-rule="evenodd" clip-rule="evenodd" d="M5.90006 16.8615H5.99006C6.95429 16.867 7.7346 17.6473 7.74006 18.6115V20.2915C7.7346 21.2557 6.95429 22.0361 5.99006 22.0415H4.31006C3.34583 22.0361 2.56552 21.2557 2.56006 20.2915V18.6115C2.56552 17.6473 3.34583 16.867 4.31006 16.8615H4.40006V9.43152C4.40006 9.0173 4.73584 8.68152 5.15006 8.68152C5.56427 8.68152 5.90006 9.0173 5.90006 9.43152V16.8615ZM5.99006 20.5415C6.12813 20.5415 6.24006 20.4296 6.24006 20.2915V18.6115C6.24006 18.4734 6.12813 18.3615 5.99006 18.3615H4.31006C4.17199 18.3615 4.06006 18.4734 4.06006 18.6115V20.2915C4.06519 20.4274 4.17417 20.5364 4.31006 20.5415H5.99006Z" fill="#034844"/>
<path fill-rule="evenodd" clip-rule="evenodd" d="M19.0101 16.8615H20.6901C21.6543 16.8669 22.4346 17.6472 22.4401 18.6115V20.2915C22.4346 21.2557 21.6543 22.036 20.6901 22.0415H19.0101C18.0459 22.036 17.2655 21.2557 17.2601 20.2915V20.2015H9.83008C9.41586 20.2015 9.08008 19.8657 9.08008 19.4515C9.08008 19.0372 9.41586 18.7015 9.83008 18.7015H17.2601V18.6115C17.2655 17.6472 18.0459 16.8669 19.0101 16.8615ZM20.6901 20.5415C20.826 20.5363 20.9349 20.4273 20.9401 20.2915V18.6115C20.9401 18.4734 20.8281 18.3615 20.6901 18.3615H19.0101C18.872 18.3615 18.7601 18.4734 18.7601 18.6115V20.2915C18.7601 20.4295 18.872 20.5415 19.0101 20.5415H20.6901Z" fill="#034844"/>
</svg>
