<svg width="25" height="25" viewBox="0 0 25 25" fill="none" xmlns="http://www.w3.org/2000/svg">
<path fill-rule="evenodd" clip-rule="evenodd" d="M20.03 9.54148L13.03 2.54148C12.8827 2.4152 12.694 2.34757 12.5 2.35148H9.5C6.87665 2.35148 4.75 4.47813 4.75 7.10148V17.1015C4.75 19.7248 6.87665 21.8515 9.5 21.8515H15.5C18.1234 21.8515 20.25 19.7248 20.25 17.1015V10.1015C20.2534 9.8931 20.1743 9.69182 20.03 9.54148ZM13.25 4.89148L17.71 9.35148H14.5C13.8096 9.35148 13.25 8.79183 13.25 8.10148V4.89148ZM6.25 17.1015C6.25549 18.8941 7.70735 20.346 9.5 20.3515H15.5C17.2926 20.346 18.7445 18.8941 18.75 17.1015V10.8515H14.5C12.9812 10.8515 11.75 9.62026 11.75 8.10148V3.85148H9.5C7.70735 3.85697 6.25549 5.30883 6.25 7.10148V17.1015Z" fill="#034844"/>
</svg>
