<svg width="25" height="25" viewBox="0 0 25 25" fill="none" xmlns="http://www.w3.org/2000/svg">
<path fill-rule="evenodd" clip-rule="evenodd" d="M19.1943 2.10144H15.3848C14.9339 2.10144 14.5685 2.46692 14.5685 2.91777C14.5685 3.36861 14.9339 3.73409 15.3848 3.73409H19.1943C19.9457 3.73409 20.5548 4.34323 20.5548 5.09464V8.90416C20.5548 9.35501 20.9203 9.72049 21.3712 9.72049C21.822 9.72049 22.1875 9.35501 22.1875 8.90416V5.09464C22.1875 3.44154 20.8474 2.10144 19.1943 2.10144ZM5.1807 20.4688H8.99022C9.44107 20.4688 9.80655 20.8343 9.80655 21.2851C9.80655 21.736 9.44107 22.1014 8.99022 22.1014H5.1807C3.5276 22.1014 2.1875 20.7613 2.1875 19.1082V15.2987C2.1875 15.0071 2.34309 14.7376 2.59566 14.5918C2.84824 14.4459 3.15942 14.4459 3.41199 14.5918C3.66456 14.7376 3.82015 15.0071 3.82015 15.2987V19.1082C3.82015 19.8597 4.42929 20.4688 5.1807 20.4688ZM20.5548 15.2999C20.5548 14.8484 20.9203 14.4824 21.3712 14.4824C21.8178 14.4824 22.1815 14.8418 22.1875 15.289V19.104C22.1875 20.7594 20.8474 22.1014 19.1943 22.1014H15.3848C14.9339 22.1014 14.5685 21.7354 14.5685 21.2839C14.5685 20.8325 14.9339 20.4665 15.3848 20.4665H19.1943C19.9457 20.4665 20.5548 19.8564 20.5548 19.104V15.2999ZM5.1807 2.10144H8.99022C9.44107 2.10144 9.80655 2.46692 9.80655 2.91777C9.80655 3.36861 9.44107 3.73409 8.99022 3.73409H5.1807C4.42929 3.73409 3.82015 4.34323 3.82015 5.09464V8.90416C3.82015 9.35501 3.45467 9.72049 3.00383 9.72049C2.55298 9.72049 2.1875 9.35501 2.1875 8.90416V5.09464C2.1875 3.44154 3.5276 2.10144 5.1807 2.10144Z" fill="#034844"/>
</svg>
