<svg width="25" height="25" viewBox="0 0 25 25" fill="none" xmlns="http://www.w3.org/2000/svg">
<path d="M7.75 14.6115H4.25C3.83579 14.6115 3.5 14.9472 3.5 15.3615C3.5 15.7757 3.83579 16.1115 4.25 16.1115H7.75C8.43647 16.1114 8.99451 16.665 9 17.3515V20.8514C9 21.2657 9.33579 21.6014 9.75 21.6014C10.1642 21.6014 10.5 21.2657 10.5 20.8514V17.3515C10.4945 15.8366 9.26489 14.6114 7.75 14.6115Z" fill="#034844"/>
<path d="M21.25 14.6115H17.75C16.2351 14.6114 15.0055 15.8366 15 17.3515V20.8514C15 21.2657 15.3358 21.6014 15.75 21.6014C16.1642 21.6014 16.5 21.2657 16.5 20.8514V17.3515C16.5055 16.665 17.0635 16.1114 17.75 16.1115H21.25C21.6642 16.1115 22 15.7757 22 15.3615C22 14.9472 21.6642 14.6115 21.25 14.6115V14.6115Z" fill="#034844"/>
<path d="M17.75 10.1114H21.25C21.6642 10.1114 22 9.77565 22 9.36144C22 8.94723 21.6642 8.61144 21.25 8.61144H17.75C17.4168 8.61145 17.0973 8.47838 16.8626 8.2418C16.6279 8.00521 16.4974 7.68469 16.5 7.35144V3.85144C16.5 3.43723 16.1642 3.10144 15.75 3.10144C15.3358 3.10144 15 3.43723 15 3.85144V7.35144C14.9974 8.08252 15.2859 8.78456 15.8019 9.30245C16.3179 9.82034 17.0189 10.1114 17.75 10.1114Z" fill="#034844"/>
<path d="M9.75 3.10144C9.33804 3.10683 9.00539 3.43948 9 3.85144V7.35144C9.00267 7.68469 8.87215 8.00521 8.63744 8.2418C8.40273 8.47838 8.08326 8.61145 7.75 8.61144H4.25C3.83579 8.61144 3.5 8.94723 3.5 9.36144C3.5 9.77565 3.83579 10.1114 4.25 10.1114H7.75C8.48108 10.1114 9.18208 9.82034 9.69809 9.30245C10.2141 8.78456 10.5027 8.08252 10.5 7.35144V3.85144C10.4946 3.43948 10.162 3.10683 9.75 3.10144Z" fill="#034844"/>
</svg>
