<svg width="46" height="46" viewBox="0 0 46 46" fill="none" xmlns="http://www.w3.org/2000/svg">
<path d="M16.2106 14.9947L16.2106 13.5617C16.1916 13.0234 15.7498 12.5969 15.2112 12.5969C14.6726 12.5969 14.2308 13.0234 14.2118 13.5617L14.2118 17.3329C14.2122 17.8847 14.6594 18.3319 15.2112 18.3323L18.9824 18.3323C19.5342 18.3319 19.9815 17.8847 19.9818 17.3329C19.9815 16.7811 19.5342 16.3339 18.9824 16.3335L17.7379 16.3335C21.306 13.552 26.3283 13.6259 29.8129 16.5113C33.2975 19.3967 34.3068 24.3171 32.2395 28.3413C30.1721 32.3655 25.5845 34.4106 21.2095 33.2584C16.8346 32.1061 13.8495 28.0664 14.0327 23.546C13.9896 23.0471 13.5842 22.657 13.084 22.6332C12.5838 22.6094 12.1431 22.9592 12.0528 23.4517C11.8265 28.9611 15.4884 33.8767 20.8321 35.2367C26.1758 36.5968 31.742 34.0299 34.177 29.0826C36.6121 24.1354 35.251 18.1588 30.9138 14.7539C26.5766 11.3489 20.4478 11.4454 16.22 14.9853L16.2106 14.9947Z" fill="#034844"/>
</svg>
