<svg width="46" height="46" viewBox="0 0 46 46" fill="none" xmlns="http://www.w3.org/2000/svg">
<path d="M29.7894 14.9947L29.7894 13.5617C29.8084 13.0234 30.2502 12.5969 30.7888 12.5969C31.3274 12.5969 31.7692 13.0234 31.7882 13.5617L31.7882 17.3329C31.7878 17.8847 31.3406 18.3319 30.7888 18.3323L27.0176 18.3323C26.4658 18.3319 26.0185 17.8847 26.0182 17.3329C26.0185 16.7811 26.4658 16.3339 27.0176 16.3335L28.2621 16.3335C24.694 13.552 19.6717 13.6259 16.1871 16.5113C12.7025 19.3967 11.6932 24.3171 13.7605 28.3413C15.8279 32.3655 20.4155 34.4106 24.7905 33.2584C29.1654 32.1061 32.1505 28.0664 31.9673 23.546C32.0104 23.0471 32.4158 22.657 32.916 22.6332C33.4162 22.6094 33.8569 22.9592 33.9472 23.4517C34.1735 28.9611 30.5116 33.8767 25.1679 35.2367C19.8242 36.5968 14.258 34.0299 11.823 29.0826C9.38789 24.1354 10.749 18.1588 15.0862 14.7539C19.4234 11.3489 25.5522 11.4454 29.78 14.9853L29.7894 14.9947Z" fill="#034844"/>
</svg>
